<svg width="24" height="24" viewBox="0 0 24 24" fill="none" xmlns="http://www.w3.org/2000/svg">
  <path d="M15.5 2H12.5C11.4391 2 10.5806 2.7554 10.5044 3.71147L10.001 9.00019H7C6.44772 9.00019 6 9.4479 6 10.0002C6 10.5525 6.44772 11.0002 7 11.0002H9.80624L9.1923 17.3368C9.14788 17.9169 9.4917 18.4553 10.0261 18.6028C10.5606 18.7503 11.1159 18.4742 11.3635 17.9758L14.5 12.0002H18C18.5523 12.0002 19 11.5525 19 11.0002C19 10.4479 18.5523 10.0002 18 10.0002H15.8266L20.1734 2.66696C20.4533 2.20909 20.2957 1.61396 19.8378 1.33408C19.3799 1.05421 18.7848 1.21181 18.5049 1.66968L15.5 7.00019V2.5C15.5 2.22386 15.2761 2 15 2ZM12.5 20.0002C11.1193 20.0002 10 21.1195 10 22.5002C10 22.7763 10.2239 23.0002 10.5 23.0002H14.5C14.7761 23.0002 15 22.7763 15 22.5002C15 21.1195 13.8807 20.0002 12.5 20.0002Z" fill="#F2A255"/>
</svg>